<?xml version="1.0" encoding="utf-8"?>
<!-- Generator: Adobe Illustrator 18.1.1, SVG Export Plug-In . SVG Version: 6.00 Build 0)  -->
<svg version="1.1" xmlns="http://www.w3.org/2000/svg" xmlns:xlink="http://www.w3.org/1999/xlink" x="0px" y="0px"
	 viewBox="0 0 1000 1000" enable-background="new 0 0 1000 1000" xml:space="preserve">
<g id="Layer_1">
	<path fill="none" stroke="#65A69F" stroke-width="20" stroke-linecap="round" stroke-linejoin="round" stroke-miterlimit="10" d="
		M624.3,322.2c-13.8,0-25,11.2-25,25v250c0,13.8-11.2,25-25,25h0c-13.8,0-25-11.2-25-25v-250c0-13.8-11.2-25-25-25h0
		c-13.8,0-25,11.2-25,25v250c0,13.8-11.2,25-25,25h0c-13.8,0-25-11.2-25-25v-250c0-13.8-11.2-25-25-25h0c-13.8,0-25,11.2-25,25v250
		c0,13.8-11.2,25-25,25h0c-13.8,0-25-11.2-25-25v-175c0-13.8-11.2-25-25-25h0c-13.8,0-25,11.2-25,25v100c0,13.8-11.2,25-25,25h0
		c-13.8,0-25-11.2-25-25v-25c0-13.8-11.2-25-25-25h-25h25c13.8,0,25,11.2,25,25v25c0,13.8,11.2,25,25,25h0c13.8,0,25-11.2,25-25
		v-100c0-13.8,11.2-25,25-25h0c13.8,0,25,11.2,25,25v175c0,13.8,11.2,25,25,25h0c13.8,0,25-11.2,25-25v-250c0-13.8,11.2-25,25-25h0
		c13.8,0,25,11.2,25,25v250c0,13.8,11.2,25,25,25h0c13.8,0,25-11.2,25-25v-250c0-13.8,11.2-25,25-25h0c13.8,0,25,11.2,25,25v250
		c0,13.8,11.2,25,25,25h0c13.8,0,25-11.2,25-25v-250C599.3,333.4,610.5,322.2,624.3,322.2L624.3,322.2c13.8,0,25,11.2,25,25v175
		c0,13.8,11.2,25,25,25h0c13.8,0,25-11.2,25-25v-100c0-13.8,11.2-25,25-25h0c13.8,0,25,11.2,25,25v25c0,13.8,11.2,25,25,25h25h-25
		c-13.8,0-25-11.2-25-25v-25c0-13.8-11.2-25-25-25"/>
</g>
<g id="assets">
	
		<image overflow="visible" width="2198" height="408" xlink:href="../color palette/palette.png"  transform="matrix(0.1006 0 0 0.1006 0 0)">
	</image>
</g>
</svg>
